<?xml version="1.0" standalone="no"?><!DOCTYPE svg PUBLIC "-//W3C//DTD SVG 1.1//EN" "http://www.w3.org/Graphics/SVG/1.1/DTD/svg11.dtd"><svg t="1591923854029" class="icon" viewBox="0 0 1024 1024" version="1.1" xmlns="http://www.w3.org/2000/svg" p-id="6115" xmlns:xlink="http://www.w3.org/1999/xlink" width="64" height="64"><defs><style type="text/css"></style></defs><path d="M864.799744 381.812736l-4.774912 0 0-74.200064c0-31.299584-25.499648-56.824832-56.824832-56.824832L493.825024 250.78784l0-39.4752c0-31.299584-25.499648-56.800256-56.800256-56.800256L159.224832 154.512384c-31.325184 0-56.824832 25.499648-56.824832 56.800256l0 601.40032c0 31.325184 25.499648 56.774656 56.824832 56.774656l643.975168 0c31.325184 0 56.824832-25.450496 56.725504-55.725056L921.6 438.612992C921.6 407.312384 896.100352 381.812736 864.799744 381.812736zM152.875008 236.587008c0-24.5248 7.074816-31.625216 31.599616-31.625216l227.300352 0c24.450048 0 31.550464 7.100416 31.550464 31.625216l0 58.375168 1.574912 6.299648 333.100032 0c24.474624 0 31.550464 7.100416 31.550464 31.550464l0 49.000448-588.8 0c-31.299584 0-56.800256 25.499648-56.75008 55.825408l-11.124736 72.349696L152.876032 236.587008zM809.549824 787.412992c0 24.5248-7.074816 31.599616-31.599616 31.599616L184.474624 819.012608c-24.5248 0-31.599616-7.074816-31.699968-30.425088l61.674496-324.724736c0-24.500224 7.100416-31.599616 31.550464-31.599616l593.524736 0c24.474624 0 31.57504 7.100416 31.675392 30.425088L809.549824 787.412992z" p-id="6116" fill="#e6e6e6"></path></svg>