<?xml version="1.0" standalone="no"?><!DOCTYPE svg PUBLIC "-//W3C//DTD SVG 1.1//EN" "http://www.w3.org/Graphics/SVG/1.1/DTD/svg11.dtd"><svg t="1591923666229" class="icon" viewBox="0 0 1024 1024" version="1.1" xmlns="http://www.w3.org/2000/svg" p-id="5306" xmlns:xlink="http://www.w3.org/1999/xlink" width="64" height="64"><defs><style type="text/css"></style></defs><path d="M808.96 365.056v-47.104a46.592 46.592 0 0 0-45.056-48.128h-271.36v-44.032a46.592 46.592 0 0 0-45.056-48.128H220.672a46.592 46.592 0 0 0-45.056 48.128v581.12L256 413.184a46.592 46.592 0 0 1 45.056-48.128z m-33.792 481.28h-563.2l76.8-397.312a46.592 46.592 0 0 1 45.056-48.128h520.704a46.592 46.592 0 0 1 45.056 48.128L819.2 798.208a46.592 46.592 0 0 1-44.032 48.128z" fill="#e6e6e6" p-id="5307"></path></svg>