<?xml version="1.0" standalone="no"?><!DOCTYPE svg PUBLIC "-//W3C//DTD SVG 1.1//EN" "http://www.w3.org/Graphics/SVG/1.1/DTD/svg11.dtd"><svg t="1591874554057" class="icon" viewBox="0 0 1024 1024" version="1.1" xmlns="http://www.w3.org/2000/svg" p-id="9108" xmlns:xlink="http://www.w3.org/1999/xlink" width="128" height="128"><defs><style type="text/css"></style></defs><path d="M442.774184 1024c-244.168349 0-442.774184-198.605835-442.774184-442.774184s198.605835-442.774184 442.774184-442.774184a27.676307 27.676307 0 0 1 0 55.352614c-213.653147 0-387.456618 173.815153-387.456618 387.456618s173.850201 387.409887 387.456618 387.409887 387.503349-173.826836 387.503348-387.479983a27.676307 27.676307 0 0 1 55.352615 0c0 244.168349-198.687613 442.809232-442.855963 442.809232z" fill="#e6e6e6" p-id="9109"></path><path d="M996.335376 608.84371H442.774184a27.664624 27.664624 0 0 1-27.676307-27.676307V27.676307A27.664624 27.664624 0 0 1 442.774184 0c320.456355 0 581.190768 260.72273 581.190768 581.190768a27.664624 27.664624 0 0 1-27.629576 27.652942z m-525.838154-55.352615h497.437519c-14.019235-267.942636-229.4832-483.476697-497.437519-497.449202z" fill="#e6e6e6" p-id="9110"></path></svg>