<?xml version="1.0" standalone="no"?><!DOCTYPE svg PUBLIC "-//W3C//DTD SVG 1.1//EN" "http://www.w3.org/Graphics/SVG/1.1/DTD/svg11.dtd"><svg t="1591923975631" class="icon" viewBox="0 0 1024 1024" version="1.1" xmlns="http://www.w3.org/2000/svg" p-id="8316" xmlns:xlink="http://www.w3.org/1999/xlink" width="64" height="64"><defs><style type="text/css"></style></defs><path d="M480.2 958.7c-228.1 0-413.5-185.5-413.5-413.5 0.7-183.3 121.3-344.6 297-396.9 17.8-4.1 35.7 6.4 40.9 24 5.1 17.6-4.3 36.1-21.5 42.2-146.4 43.6-246.9 178-247.5 330.7 0 190 154.6 344.6 344.6 344.6 151.6 0.6 285.5-98.4 329.4-243.4 5.6-18.2 24.9-28.5 43.1-22.9 18.2 5.6 28.5 24.9 22.9 43.1C823 840.7 662.1 959.5 480.2 958.7z m445.7-412.3c-9.1 0-17.9-3.6-24.4-10.1s-10.1-15.2-10.1-24.4c0-209-170.1-379.1-379.1-379.1-19 0-34.5-15.4-34.5-34.5 0-19 15.4-34.5 34.5-34.5 247 0 448 201 448 448 0 19.2-15.4 34.6-34.4 34.6z m0 0" p-id="8317" fill="#e6e6e6"></path><path d="M512.4 63.9c-19 0-34.5 15.4-34.5 34.5v413.5c0 19 15.4 34.5 34.5 34.5 19 0 34.5-15.4 34.5-34.5V98.4c-0.1-19-15.5-34.5-34.5-34.5z m0 0" p-id="8318" fill="#e6e6e6"></path><path d="M925.9 477.5H512.4c-19 0-34.5 15.4-34.5 34.5 0 19 15.4 34.5 34.5 34.5h413.5c19 0 34.5-15.4 34.5-34.5-0.1-19.1-15.5-34.5-34.5-34.5z m0 0" p-id="8319" fill="#e6e6e6"></path></svg>