<?xml version="1.0" standalone="no"?><!DOCTYPE svg PUBLIC "-//W3C//DTD SVG 1.1//EN" "http://www.w3.org/Graphics/SVG/1.1/DTD/svg11.dtd"><svg t="1591875497637" class="icon" viewBox="0 0 1024 1024" version="1.1" xmlns="http://www.w3.org/2000/svg" p-id="20135" xmlns:xlink="http://www.w3.org/1999/xlink" width="128" height="128"><defs><style type="text/css"></style></defs><path d="M511.3 111.2c54.3 0 106.9 10.6 156.5 31.6C715.7 163 758.7 192 795.6 229c36.9 36.9 65.9 79.9 86.2 127.8 21 49.5 31.6 102.2 31.6 156.5s-10.6 106.9-31.6 156.5c-20.2 47.9-49.2 90.9-86.2 127.8-36.9 36.9-79.9 65.9-127.8 86.2-49.5 21-102.2 31.6-156.5 31.6s-106.9-10.6-156.5-31.6c-47.9-20.2-90.9-49.2-127.8-86.2-36.9-36.9-65.9-79.9-86.2-127.8-20.9-49.5-31.6-102.2-31.6-156.5s10.6-106.9 31.6-156.5C161 308.9 190 265.9 227 229s80-66 127.9-86.2c49.5-21 102.1-31.6 156.4-31.6m0-46c-247.4 0-448 200.6-448 448s200.6 448 448 448 448-200.6 448-448-200.5-448-448-448z" p-id="20136" fill="#e6e6e6"></path><path d="M613.1 379.9c42 0 76.2 34 76.2 75.8 0 35.7-9.4 69.9-27.9 101.7-15.5 26.6-37.5 51.8-65.4 75-32.4 27-65.5 45-84.7 54.3-18.8-9.1-51-26.6-82.8-52.7-28.3-23.3-50.7-48.6-66.6-75.4-19-32.1-28.6-66.7-28.6-102.8 0-41.8 34.2-75.8 76.2-75.8 25.6 0 49.3 12.7 63.5 34l38.3 57.4 38.3-57.4c14.2-21.4 38-34.1 63.5-34.1m0-46c-42.5 0-79.9 21.7-101.8 54.5-21.9-32.8-59.3-54.5-101.8-54.5-67.5 0-122.2 54.5-122.2 121.8 0 195 224 281.3 224 281.3s224-86.3 224-281.3c0-67.3-54.7-121.8-122.2-121.8z" p-id="20137" fill="#e6e6e6"></path></svg>