<?xml version="1.0" standalone="no"?><!DOCTYPE svg PUBLIC "-//W3C//DTD SVG 1.1//EN" "http://www.w3.org/Graphics/SVG/1.1/DTD/svg11.dtd"><svg t="1591875226744" class="icon" viewBox="0 0 1024 1024" version="1.1" xmlns="http://www.w3.org/2000/svg" p-id="19584" xmlns:xlink="http://www.w3.org/1999/xlink" width="128" height="128"><defs><style type="text/css"></style></defs><path d="M518.656 342.528c-64.512 0-117.248-52.736-117.248-117.248s52.736-117.248 117.248-117.248 117.248 52.736 117.248 117.248-52.736 117.248-117.248 117.248z m0-185.344C481.28 157.184 450.56 187.904 450.56 225.28s30.72 68.096 68.096 68.096c37.376 0 68.096-30.72 68.096-68.096s-30.208-68.096-68.096-68.096zM304.128 925.184c-4.608 0-9.216-1.024-13.312-3.584-11.264-7.168-14.848-22.528-7.68-33.792l148.48-233.472c4.096-6.656 6.144-13.824 6.144-21.504l1.024-147.968c0-11.776-5.12-23.552-14.336-31.232L226.816 283.648c-10.24-8.704-11.264-24.064-2.56-34.304 8.704-10.24 24.064-11.264 34.304-2.56l198.144 169.984c19.968 17.408 31.232 41.984 31.232 68.608l-1.024 147.968c0 16.896-5.12 33.28-13.824 47.104l-148.48 233.472c-4.608 7.168-12.8 11.264-20.48 11.264zM733.184 925.184c-8.192 0-15.872-4.096-20.48-11.264l-148.48-233.472a87.04 87.04 0 0 1-13.824-47.104l-1.024-147.968c0-26.624 11.264-51.2 31.232-68.608l198.144-169.984c10.24-8.704 25.6-7.68 34.304 2.56 8.704 10.24 7.68 25.6-2.56 34.304l-198.144 169.984c-9.216 7.68-14.336 18.944-14.336 31.232l1.024 147.968c0 7.68 2.048 14.848 6.144 21.504l148.48 233.472c7.168 11.264 4.096 26.624-7.68 33.792-3.584 2.048-8.192 3.584-12.8 3.584z" fill="#e6e6e6" p-id="19585"></path></svg>