<?xml version="1.0" standalone="no"?><!DOCTYPE svg PUBLIC "-//W3C//DTD SVG 1.1//EN" "http://www.w3.org/Graphics/SVG/1.1/DTD/svg11.dtd"><svg t="1591874778400" class="icon" viewBox="0 0 1024 1024" version="1.1" xmlns="http://www.w3.org/2000/svg" p-id="10867" xmlns:xlink="http://www.w3.org/1999/xlink" width="128" height="128"><defs><style type="text/css"></style></defs><path d="M832.16 224L832 640.032h32a32 32 0 0 1 32 32v106.912C896 825.696 854.784 864 804.032 864h-450.88C302.4 864 256 823.232 256 773.024V416H160a32 32 0 0 1-32-32V256a96 96 0 0 1 96-96h544.16c35.36 0 64 28.64 64 64zM256 349.76V256a32 32 0 1 0-64 0v93.76c0 2.016 1.184 3.008 2.336 3.008h59.328c1.568 0 2.336-1.504 2.336-2.976zM768.16 640V224H287.968A32 32 0 0 1 320 256v516.512c0 13.76 15.168 27.552 31.872 27.552 16.192 0 32.128-13.76 32.128-27.52V672a32 32 0 0 1 32-32h352.16z m31.68 160.096c17.28 0 32.32-15.424 32.32-34.304V704H448.128v55.328c0 12.416 0 22.496-4.032 28.32a53.536 53.536 0 0 1-13.536 12.48h369.28zM384 288h320v64H384V288z m0 128h320v64H384v-64z" p-id="10868" fill="#e6e6e6"></path></svg>