<svg class="icon" viewBox="0 0 1024 1024" xmlns="http://www.w3.org/2000/svg" width="200" height="200"><defs><style/></defs><path d="M977.067 352L742.4 565.333C736 571.733 725.333 576 714.667 576c-10.667 0-19.2-4.267-25.6-8.533l-192-149.334C486.4 409.6 480 398.933 480 384c0-23.467 19.2-42.667 42.667-42.667 10.666 0 19.2 4.267 25.6 8.534l164.266 128L921.6 288c8.533-6.4 17.067-10.667 27.733-10.667C972.8 277.333 992 296.533 992 320c0 12.8-6.4 23.467-14.933 32zm-454.4-96c-70.4 0-128-57.6-128-128s57.6-128 128-128 128 57.6 128 128-57.6 128-128 128zm0-170.667C499.2 85.333 480 104.533 480 128s19.2 42.667 42.667 42.667 42.666-19.2 42.666-42.667-19.2-42.667-42.666-42.667zM396.8 539.733l234.667 149.334c12.8 8.533 19.2 21.333 19.2 36.266 0 21.334-17.067 40.534-38.4 42.667l-179.2 19.2L166.4 1013.333c-8.533 6.4-17.067 10.667-27.733 10.667C115.2 1024 96 1004.8 96 981.333c0-8.533 2.133-14.933 6.4-21.333l234.667-405.333c6.4-12.8 21.333-21.334 36.266-21.334 8.534 0 17.067 2.134 23.467 6.4zm-98.133 249.6l89.6-76.8c6.4-4.266 14.933-8.533 23.466-8.533l72.534-8.533-96-59.734-89.6 153.6zm4.266-428.8l-164.266 66.134 78.933 128c4.267 6.4 6.4 14.933 6.4 23.466 0 23.467-19.2 42.667-42.667 42.667-14.933 0-27.733-8.533-36.266-19.2L38.4 430.933c-4.267-6.4-6.4-14.933-6.4-23.466 0-17.067 10.667-34.134 27.733-40.534L273.067 281.6c4.266-2.133 10.666-2.133 14.933-2.133 23.467 0 42.667 19.2 42.667 42.666 0 14.934-10.667 32-27.734 38.4z"/></svg>